<svg xmlns="http://www.w3.org/2000/svg" viewBox="0 0 47.5 47.5" id="pig"><defs><clipPath id="a"><path d="M0 38h38V0H0v38Z"></path></clipPath></defs><g clip-path="url(#a)" transform="matrix(1.25 0 0 -1.25 0 47.5)"><path fill="#f4abba" d="M35.193 23.67a6.01 6.01 0 0 1 1.02 1.28c1.685 2.853.269 10.292-.592 10.8-.696.411-5.53-1.05-8.246-3.132-2.499 1.497-5.344 2.381-8.375 2.381-3.022 0-5.856-.879-8.349-2.367-2.721 2.075-7.533 3.528-8.227 3.118-.861-.508-2.276-7.947-.592-10.8.278-.471.615-.884.989-1.249C1.665 21.149 1 18.359 1 15.521 1 5.531 9.01 2.999 19 2.999c9.989 0 18 2.532 18 12.522 0 2.827-.661 5.606-1.807 8.149"></path><path fill="#ea596e" d="M8.398 31.035c-2.166 1.268-4.402 2.08-4.8 1.845-.57-.336-1.083-4.998-.351-8.264a20.366 20.366 0 0 0 5.151 6.419M34.753 24.616c.732 3.267.219 7.928-.351 8.265-.398.235-2.634-.578-4.8-1.846a20.316 20.316 0 0 0 5.151-6.419M29 13.875C29 9.388 25.903 4.5 19 4.5c-6.904 0-10 4.888-10 9.375S12.096 19.5 19 19.5c6.903 0 10-1.138 10-5.625"></path><path fill="#662113" d="M16 12.4c0-1.857-.34-2.4-1.5-2.4s-1.5.543-1.5 2.4c0 1.856.34 2.399 1.5 2.399S16 14.256 16 12.4M25 12.4c0-1.857-.34-2.4-1.5-2.4s-1.5.543-1.5 2.4c0 1.856.34 2.399 1.5 2.399S25 14.256 25 12.4"></path><path fill="#292f33" d="M10 20a2 2 0 1 0-4.001.001A2 2 0 0 0 10 20M32 20a2 2 0 1 0-4.001.001A2 2 0 0 0 32 20"></path></g></svg>